# Blender v2.79 (sub 0) OBJ File: 'pinetrees_02.blend'
# www.blender.org
o Plane.001
v -2.009829 25.847057 0.830707
v -1.844179 26.445120 0.431843
v -1.464697 26.963989 0.236795
v -1.826757 26.521564 -0.032967
v -2.077828 25.680727 -0.561258
v -1.653613 26.366064 -0.812298
v -1.228248 26.774578 -0.823999
v -1.432815 26.176304 -1.305475
v -1.314737 25.784498 -1.642582
v -0.797883 26.493956 -1.670501
v -0.392497 26.936388 -1.494175
v -0.363850 26.331604 -1.970661
v -0.129527 25.855646 -2.231646
v 0.266017 26.444025 -2.080913
v 0.566921 26.959627 -1.758385
v 0.762389 26.188713 -2.250679
v 1.124583 25.633532 -2.354890
v 1.484904 26.234877 -2.040720
v 1.652786 26.591125 -1.655369
v 1.878997 26.059065 -1.895770
v 2.123477 25.624117 -1.881643
v 2.442929 26.109354 -1.445562
v 2.491918 26.477308 -1.011540
v 2.877142 25.871620 -1.084708
v 3.182570 25.148787 -0.892185
v 3.094014 25.607069 -0.364148
v 2.809786 26.642366 0.055125
v -1.313678 27.487654 0.791630
v -1.255611 27.403255 -0.310243
v -0.669048 27.406136 -1.157482
v 0.249183 27.378567 -1.611814
v 1.211759 27.146851 -1.691624
v 1.988554 27.080034 -1.352227
v 2.667773 26.867420 -0.499159
v -0.523205 29.049833 0.402917
v -0.324765 29.049849 -0.297404
v 0.206567 29.023243 -0.771429
v 0.874148 28.961166 -0.961205
v 1.578774 28.871544 -0.878117
v 2.133726 28.810940 -0.439420
v 2.373790 28.783455 0.234523
v -0.490479 29.020342 0.768957
v -0.441593 29.042385 0.035576
v -0.057903 29.030958 -0.551317
v 0.554321 28.988102 -0.879140
v 1.240997 28.906029 -0.942214
v 1.837601 28.827063 -0.681508
v 2.287696 28.801208 -0.116305
v -0.127386 29.983023 0.771693
v 0.060680 29.994219 -0.099620
v 0.741526 29.925564 -0.600209
v 1.590948 29.877380 -0.572725
v 2.140062 29.822580 -0.105417
v 2.246246 29.719776 0.595133
v 0.764550 32.368938 0.811832
v 0.855955 32.383049 0.412862
v 1.166909 32.353458 0.181229
v 1.557795 32.354553 0.199679
v 1.811331 32.276207 0.404035
v 1.868725 32.240089 0.729942
v 1.381306 32.876949 0.742338
v -1.645115 22.357468 -1.229337
v -1.988906 21.347969 -1.921314
v -1.936751 20.693672 -2.520762
v -1.519661 21.139059 -2.535298
v -0.894870 22.015789 -2.189766
v -1.078550 22.634501 -1.609160
v -0.796116 21.425766 -2.625005
v -0.538074 21.007654 -2.970483
v 0.013385 21.361952 -2.722558
v 0.347300 22.249220 -2.221846
v 0.534591 21.347124 -2.689773
v 1.032907 20.676323 -3.028430
v 1.399700 21.134739 -2.575547
v 1.483059 22.021067 -2.025708
v 1.967336 21.111410 -2.354042
v 2.331102 20.662910 -2.249486
v 2.415440 21.167614 -1.672634
v 2.262691 22.047327 -1.172926
v 2.784162 21.031816 -1.208365
v 3.085196 20.688658 -0.937749
v 2.946628 21.123283 -0.513842
v 2.582989 22.095362 -0.155291
v -2.354785 21.795847 1.008001
v -2.926259 21.028587 0.591468
v -3.101926 20.714243 0.283780
v -2.790893 21.303818 0.009100
v -2.109199 22.282705 -0.142152
v -2.853634 21.045481 -0.647004
v -3.045815 20.515028 -1.027122
v -2.674250 20.915752 -1.300634
v -0.110718 23.015831 -1.853210
v 0.955716 22.743793 -1.875464
v 1.833036 22.661213 -1.351663
v 2.346158 22.608032 -0.465905
v -1.862149 22.817127 0.376879
v -1.761939 22.713861 -0.498275
v 0.223415 27.728167 -0.236496
v 1.034925 27.646835 -0.398991
v 1.612861 27.549910 0.152300
v -0.097596 27.709869 0.542373
v 0.602446 27.696115 -0.418132
v 1.401464 27.588669 -0.196719
v -0.038784 27.716719 0.142388
v -1.528974 17.094881 -0.657069
v 1.129486 17.037552 -1.271345
v -0.347847 17.124041 -1.684149
v -1.638112 17.086796 0.077827
v 1.520069 17.004395 -0.628199
v 0.451176 17.090464 -1.646012
v -1.047776 17.138987 -1.352685
v -3.836886 7.528161 -1.516617
v -4.043876 7.787279 0.080328
v 3.698072 8.069352 -1.450426
v 2.757028 7.985731 -3.080588
v 1.141936 7.927567 -4.048829
v -0.857059 8.242715 -4.032324
v -5.203498 4.056688 -2.776639
v -5.823178 3.330318 -2.221104
v -5.557333 4.340124 -1.595147
v -4.403237 6.727804 -0.815721
v -5.488535 4.884383 -0.425827
v -5.967248 3.836317 0.155527
v -5.697160 4.449124 0.677428
v -4.780502 5.943740 1.349521
v 4.214093 7.193919 -0.829878
v 5.046413 5.394225 -1.377282
v 5.374891 4.541130 -2.100738
v 4.770261 5.110771 -2.640150
v 3.644226 6.936073 -2.690046
v 4.076345 5.250124 -3.506292
v 4.008608 4.208220 -4.498805
v 3.271399 4.988050 -4.748475
v 2.228925 6.655983 -4.249219
v 2.230460 4.913956 -5.156067
v 1.635635 3.939582 -5.923845
v 0.612349 5.159584 -5.387878
v 0.113838 6.862617 -4.632216
v -0.343723 5.099769 -5.448503
v -1.293736 4.328771 -5.856749
v -1.836718 5.100849 -5.275033
v -2.564740 7.388096 -3.548768
v -2.120110 6.222467 -4.543808
v -3.115060 4.474831 -5.073256
v -3.808722 3.611287 -4.985936
v -4.012386 4.855863 -3.972933
v -3.557949 6.825139 -2.819347
v 2.723068 16.086021 -1.964499
v 3.606848 14.108836 -2.032001
v 4.295929 13.193625 -1.655883
v 4.109170 13.846163 -1.119117
v 3.455201 15.580693 -0.508191
v 2.965348 16.449362 -1.054729
v -3.211029 15.971869 0.886235
v -3.948774 14.356382 0.690677
v -4.532193 13.276542 0.161548
v -4.194902 13.978717 -0.495374
v -3.250559 16.122393 -0.747197
v -3.472149 15.334324 -1.166181
v -3.577069 14.633089 -1.641901
v -3.193114 15.132576 -1.906963
v -2.557719 16.404665 -1.969748
v -3.014032 14.295884 -2.846291
v -2.928743 13.443041 -3.521693
v -2.340793 14.025068 -3.583594
v -1.331566 16.640209 -2.892354
v -1.253170 14.258638 -4.078882
v -0.813317 13.602320 -4.659161
v -0.288940 14.166071 -4.484473
v 0.162201 15.508629 -3.876786
v 0.882105 13.933043 -4.466484
v 1.332100 13.428332 -4.559975
v 1.577918 14.201194 -4.019927
v 1.568679 16.083469 -3.106824
v 2.417917 13.768434 -3.778417
v 2.968212 12.970656 -3.853994
v 3.150376 13.523782 -3.226529
v -3.075098 16.608122 0.155601
v -2.604987 17.499277 -1.107471
v -2.018002 16.828760 -2.308401
v -0.606981 16.836664 -3.117127
v 0.860299 16.885277 -3.058208
v 1.930110 16.657223 -2.519462
v 1.479520 22.443962 -0.630454
v 1.726839 22.475609 0.009439
v 1.634523 22.445641 -0.300609
v -0.999055 22.604137 0.600544
v -1.031363 22.729376 -0.053528
v -0.766828 22.725578 -0.627188
v -0.264031 22.611563 -1.070870
v 0.391180 22.591694 -1.307917
v 0.990087 22.529327 -1.101060
v -1.041313 22.663992 0.278932
v -0.908175 22.712780 -0.334962
v -0.552077 22.672234 -0.857530
v 0.057563 22.582157 -1.208324
v 0.697264 22.553539 -1.202419
v 1.224745 22.470566 -0.897512
v 0.865901 -1.060805 -0.202496
v 0.122765 -1.086579 -1.001750
v -0.867408 -1.071767 -0.542335
v -0.824619 7.024306 -0.615435
v 0.562901 7.054136 -0.343913
v -0.032176 7.038014 -0.983826
vt 0.027210 0.338597
vt 0.069849 0.421934
vt 0.178231 0.396973
vt 0.086430 0.287787
vt 0.182947 0.288330
vt 0.819736 0.749548
vt 0.912943 0.719405
vt 0.751723 0.642022
vt 0.764116 0.733446
vt 0.753549 0.889971
vt 0.763215 0.801292
vt 0.648487 0.766831
vt 0.664097 0.889938
vt 0.623073 0.863222
vt 0.551731 1.000000
vt 0.595499 0.948698
vt 0.502329 0.809428
vt 0.460836 0.935046
vt 0.427173 0.856075
vt 0.269836 0.939846
vt 0.349080 0.918488
vt 0.342510 0.776864
vt 0.254907 0.868298
vt 0.265489 0.788027
vt 0.118042 0.820565
vt 0.187270 0.828943
vt 0.227006 0.702113
vt 0.115941 0.736156
vt 0.142365 0.675354
vt 0.022371 0.613422
vt 0.068934 0.661335
vt 0.181694 0.581706
vt 0.070568 0.525991
vt 0.140586 0.474461
vt 0.609514 0.614805
vt 0.572854 0.638581
vt 0.457063 0.661024
vt 0.418819 0.642399
vt 0.328492 0.567148
vt 0.322888 0.529412
vt 0.538832 0.660969
vt 0.383892 0.626396
vt 0.314707 0.485725
vt 0.325593 0.445602
vt 0.341590 0.406064
vt 0.496591 0.660766
vt 0.354598 0.596351
vt 0.632953 0.578415
vt 0.518276 0.592143
vt 0.389011 0.475817
vt 0.446521 0.587620
vt 0.396694 0.535175
vt 0.579745 0.546293
vt 0.414987 0.422091
vt 0.475284 0.489519
vt 0.479294 0.481165
vt 0.494993 0.505825
vt 0.484286 0.505981
vt 0.477881 0.497864
vt 0.504526 0.499655
vt 0.490872 0.491571
vt 0.938984 0.552295
vt 0.971531 0.503194
vt 0.808202 0.498202
vt 0.924134 0.444785
vt 0.854656 0.404728
vt 0.866617 0.585519
vt 0.781747 0.097323
vt 0.738086 0.094226
vt 0.664873 0.271524
vt 0.640601 0.134963
vt 0.790659 0.167899
vt 0.767961 0.253996
vt 0.908172 0.266848
vt 0.860438 0.241194
vt 0.764311 0.333438
vt 0.912647 0.327072
vt 0.912943 0.719405
vt 0.890916 0.646646
vt 0.709670 0.608459
vt 0.819736 0.749548
vt 0.764116 0.733446
vt 0.753549 0.889971
vt 0.763215 0.801292
vt 0.646889 0.737977
vt 0.664097 0.889938
vt 0.623073 0.863222
vt 0.551731 1.000000
vt 0.595499 0.948698
vt 0.500994 0.777024
vt 0.460836 0.935046
vt 0.427173 0.856075
vt 0.269836 0.939846
vt 0.349080 0.918488
vt 0.355330 0.753284
vt 0.254907 0.868298
vt 0.265489 0.788027
vt 0.501764 0.492547
vt 0.508670 0.466793
vt 0.513661 0.477092
vt 0.489651 0.494276
vt 0.501728 0.458652
vt 0.508636 0.485392
vt 0.495579 0.494129
vt 0.854656 0.404728
vt 0.513661 0.477092
vt 0.808202 0.498202
vt 0.500994 0.777023
vt 0.495579 0.494129
vt 0.489651 0.494276
vt 0.623073 0.863222
vt 0.501764 0.492547
vt 0.640601 0.134963
vt 0.501728 0.458652
vt 0.664874 0.271524
vt 0.355331 0.753284
vt 0.265489 0.788027
vt 0.427173 0.856075
vt 0.764311 0.333438
vt 0.508670 0.466793
vt 0.709670 0.608460
vt 0.764116 0.733446
vt 0.508637 0.485392
vt 0.866617 0.585519
vt 0.646889 0.737977
vt 0.767961 0.253996
vt 0.595499 0.948698
vt 0.781747 0.097323
vt 0.738086 0.094226
vt 0.890916 0.646646
vt 0.860438 0.241194
vt 0.551731 1.000000
vt 0.254907 0.868298
vt 0.912647 0.327072
vt 0.664097 0.889938
vt 0.908172 0.266848
vt 0.753549 0.889971
vt 0.349080 0.918488
vt 0.763215 0.801292
vt 0.269836 0.939846
vt 0.790659 0.167899
vt 0.460836 0.935046
vt 0.819736 0.749548
vt 0.912943 0.719405
vt 0.938984 0.552295
vt 0.924134 0.444785
vt 0.971531 0.503194
vt 0.938984 0.552295
vt 0.971531 0.503194
vt 0.824654 0.492702
vt 0.924134 0.444785
vt 0.854656 0.404728
vt 0.866617 0.585519
vt 0.027210 0.338597
vt 0.069849 0.421934
vt 0.191359 0.393140
vt 0.086430 0.287787
vt 0.182947 0.288330
vt 0.183496 0.175516
vt 0.175166 0.233485
vt 0.288626 0.282862
vt 0.235482 0.169798
vt 0.297007 0.181019
vt 0.315636 0.013158
vt 0.286925 0.081871
vt 0.375655 0.169905
vt 0.380008 0.036249
vt 0.449833 0.123410
vt 0.588177 0.021022
vt 0.517059 0.049098
vt 0.517979 0.164331
vt 0.628069 0.056346
vt 0.640601 0.134963
vt 0.781747 0.097323
vt 0.738086 0.094226
vt 0.677195 0.247961
vt 0.790659 0.167899
vt 0.767961 0.253996
vt 0.908172 0.266848
vt 0.860438 0.241194
vt 0.782407 0.335722
vt 0.912647 0.327072
vt 0.140586 0.474461
vt 0.496298 0.474173
vt 0.494024 0.475048
vt 0.487564 0.476136
vt 0.487528 0.477144
vt 0.489381 0.474525
vt 0.488114 0.475397
vt 0.487843 0.476808
vt 0.491978 0.476451
vt 0.488154 0.476274
vt 0.498516 0.473798
vt 0.499621 0.473463
vt 0.498640 0.474720
vt 0.490573 0.475685
vt 0.488179 0.477857
vt 0.485944 0.476620
vt 0.055600 0.000076
vt 0.058383 0.204947
vt 0.080653 0.204900
vt 0.083417 0.000017
vt 0.102915 0.205501
vt 0.111223 0.000769
vn 0.9350 0.3166 -0.1596
vn 0.8823 0.3623 -0.3006
vn 0.9066 0.2839 -0.3120
vn 0.9450 0.3078 -0.1103
vn 0.9521 0.2686 -0.1460
vn -0.9006 0.4205 0.1095
vn -0.8990 0.3864 0.2060
vn -0.8916 0.4485 -0.0627
vn -0.8545 0.5154 -0.0650
vn -0.8516 0.4465 -0.2745
vn -0.8495 0.4852 -0.2068
vn -0.8366 0.4724 -0.2771
vn -0.8137 0.4747 -0.3356
vn -0.6884 0.5161 -0.5097
vn -0.5919 0.4381 -0.6765
vn -0.6216 0.4621 -0.6324
vn -0.5764 0.4593 -0.6758
vn -0.5625 0.4642 -0.6841
vn -0.3553 0.4924 -0.7945
vn -0.2203 0.4142 -0.8831
vn -0.2451 0.4397 -0.8640
vn -0.1992 0.4324 -0.8794
vn -0.2294 0.4333 -0.8715
vn 0.0460 0.4517 -0.8910
vn 0.2431 0.3776 -0.8935
vn 0.2311 0.4072 -0.8836
vn 0.2160 0.3976 -0.8917
vn 0.2577 0.4118 -0.8741
vn 0.3716 0.4292 -0.8232
vn 0.5772 0.3258 -0.7488
vn 0.5420 0.3489 -0.7645
vn 0.5716 0.3362 -0.7485
vn 0.6359 0.3631 -0.6810
vn 0.7414 0.4002 -0.5387
vn -0.9033 0.4234 -0.0683
vn -0.8632 0.4384 -0.2501
vn -0.4105 0.4076 -0.8156
vn -0.2214 0.3666 -0.9036
vn 0.4147 0.2955 -0.8606
vn 0.6083 0.2692 -0.7466
vn -0.7532 0.4279 -0.4996
vn -0.0298 0.3631 -0.9312
vn 0.7775 0.2337 -0.5837
vn 0.9336 0.1943 -0.3011
vn 0.9668 0.1903 -0.1702
vn -0.5762 0.4272 -0.6967
vn 0.1604 0.3415 -0.9261
vn -0.9171 0.3980 0.0251
vn -0.7573 0.4125 -0.5062
vn 0.8614 0.2059 -0.4642
vn -0.2443 0.3654 -0.8982
vn 0.3746 0.2885 -0.8812
vn -0.9073 0.3889 -0.1600
vn 0.9759 0.1615 -0.1464
vn 0.8180 0.4197 -0.3934
vn 0.9209 0.3741 -0.1094
vn -0.6794 0.5750 -0.4557
vn -0.2214 0.5339 -0.8160
vn 0.3587 0.5181 -0.7765
vn -0.8221 0.5441 -0.1674
vn 0.0442 0.8764 -0.4796
vn -0.5733 0.5469 -0.6101
vn -0.5734 0.5421 -0.6143
vn -0.6515 0.4145 -0.6354
vn -0.5613 0.5477 -0.6205
vn -0.7242 0.4954 -0.4796
vn -0.3767 0.5157 -0.7695
vn -0.8616 0.5069 0.0237
vn -0.8587 0.5123 0.0115
vn -0.9244 0.3799 -0.0319
vn -0.8593 0.4947 0.1298
vn -0.8578 0.5088 0.0726
vn -0.8467 0.5077 -0.1588
vn -0.7833 0.5339 -0.3183
vn -0.7737 0.5363 -0.3371
vn -0.8424 0.4202 -0.3372
vn -0.7860 0.5361 -0.3078
vn -0.0777 0.4973 -0.8641
vn -0.2782 0.5138 -0.8115
vn -0.0927 0.3623 -0.9274
vn 0.0910 0.4687 -0.8787
vn 0.0891 0.4368 -0.8951
vn 0.2476 0.4789 -0.8422
vn 0.0724 0.4859 -0.8710
vn 0.2141 0.3262 -0.9207
vn 0.4055 0.4564 -0.7920
vn 0.4470 0.4429 -0.7772
vn 0.7352 0.4217 -0.5306
vn 0.6612 0.4470 -0.6025
vn 0.6995 0.2922 -0.6521
vn 0.7828 0.4065 -0.4711
vn 0.8026 0.3715 -0.4667
vn 0.8723 0.4037 -0.2758
vn 0.8181 0.4149 -0.3982
vn 0.9220 0.2337 -0.3087
vn 0.9228 0.3759 -0.0837
vn 0.9289 0.3391 -0.1486
vn 0.2892 0.2721 -0.9178
vn -0.8744 0.3449 -0.3411
vn -0.6023 0.3465 -0.7191
vn 0.8519 0.1927 -0.4869
vn -0.9306 0.3401 -0.1351
vn -0.1619 0.3117 -0.9362
vn 0.6925 0.2216 -0.6865
vn -0.7628 0.4027 -0.5059
vn -0.6287 0.2624 -0.7320
vn -0.6786 0.3237 -0.6593
vn 0.6721 0.3233 -0.6661
vn 0.6739 0.2594 -0.6918
vn 0.8356 0.2517 -0.4883
vn 0.4080 0.4298 -0.8054
vn 0.2680 0.2638 -0.9266
vn -0.8976 0.4288 0.1019
vn -0.9582 0.2464 -0.1455
vn -0.9545 0.2940 -0.0501
vn 0.8978 0.3020 -0.3206
vn 0.8970 0.4079 -0.1704
vn 0.7690 0.4101 -0.4903
vn -0.8744 0.3277 -0.3576
vn -0.9017 0.2492 -0.3532
vn -0.1265 0.3108 -0.9420
vn 0.0503 0.3881 -0.9202
vn -0.1853 0.2611 -0.9474
vn -0.4180 0.4321 -0.7991
vn 0.1913 0.3026 -0.9337
vn -0.8862 0.4242 -0.1861
vn 0.6351 0.4559 -0.6235
vn -0.8991 0.4375 -0.0085
vn -0.8966 0.4426 -0.0081
vn -0.3136 0.4322 -0.8455
vn -0.8182 0.4504 -0.3572
vn 0.7022 0.4422 -0.5580
vn 0.8879 0.4442 -0.1197
vn -0.8220 0.4502 -0.3487
vn 0.3573 0.4331 -0.8275
vn -0.8219 0.4479 -0.3519
vn 0.2092 0.4371 -0.8747
vn 0.7874 0.4533 -0.4177
vn 0.0446 0.4281 -0.9026
vn 0.8379 0.4540 -0.3028
vn -0.8965 0.4426 0.0201
vn 0.7415 0.4368 -0.5093
vn 0.0476 0.4168 -0.9077
vn -0.1155 0.4302 -0.8953
vn -0.6125 0.4542 -0.6469
vn -0.6056 0.4555 -0.6525
vn -0.6143 0.4492 -0.6487
vn 0.9002 0.3998 -0.1727
vn 0.8533 0.4086 -0.3240
vn 0.8895 0.2931 -0.3504
vn 0.7980 0.4050 -0.4463
vn 0.7893 0.3532 -0.5022
vn 0.9042 0.3694 -0.2141
vn -0.9153 0.4004 0.0441
vn -0.9001 0.3936 0.1865
vn -0.9370 0.3421 0.0698
vn -0.9155 0.4001 -0.0414
vn -0.9206 0.3709 -0.1223
vn -0.8315 0.3608 -0.4224
vn -0.8773 0.3600 -0.3173
vn -0.8533 0.3392 -0.3959
vn -0.7973 0.3614 -0.4834
vn -0.7392 0.3708 -0.5622
vn -0.5777 0.4086 -0.7065
vn -0.6972 0.4004 -0.5945
vn -0.6093 0.3592 -0.7069
vn -0.4899 0.4070 -0.7709
vn -0.4528 0.3733 -0.8097
vn -0.2998 0.4261 -0.8535
vn -0.4352 0.4084 -0.8023
vn -0.3204 0.3587 -0.8767
vn -0.1624 0.4343 -0.8860
vn 0.0369 0.4224 -0.9056
vn 0.3574 0.4127 -0.8378
vn 0.2732 0.4158 -0.8674
vn 0.3482 0.3245 -0.8794
vn 0.4538 0.4056 -0.7934
vn 0.4774 0.3832 -0.7907
vn 0.6410 0.4143 -0.6460
vn 0.5015 0.4154 -0.7588
vn 0.6677 0.3150 -0.6744
vn 0.7147 0.4067 -0.5690
vn -0.9145 0.3716 0.1603
vn -0.8552 0.3338 -0.3965
vn -0.7593 0.3356 -0.5575
vn 0.6797 0.2736 -0.6805
vn 0.8086 0.2656 -0.5249
vn -0.3278 0.3320 -0.8845
vn 0.0521 0.3372 -0.9400
vn 0.4924 0.2976 -0.8179
vn -0.6132 0.3321 -0.7167
vn 0.3509 0.3029 -0.8860
vn -0.9459 0.3172 0.0676
vn -0.9280 0.3313 -0.1704
vn -0.9403 0.3163 0.1255
vn -0.4599 0.3325 -0.8233
vn 0.8977 0.2486 -0.3636
vn 0.8968 0.2489 -0.3658
vn -0.4212 -0.0060 -0.9069
vn 0.1931 0.0059 -0.9811
vn 0.1966 0.0059 -0.9805
vn 0.7320 0.0154 -0.6811
s 1
f 25/1/1 24/2/2 34/3/3
f 26/4/4 25/1/1 34/3/3
f 27/5/5 26/4/4 34/3/3
f 2/6/6 1/7/7 28/8/8
f 3/9/9 2/6/6 28/8/8
f 5/10/10 4/11/11 29/12/12
f 4/11/11 3/9/9 29/12/12
f 6/13/13 5/10/10 29/12/12
f 7/14/14 6/13/13 29/12/12
f 9/15/15 8/16/16 30/17/17
f 8/16/16 7/14/14 30/17/17
f 10/18/18 9/15/15 30/17/17
f 11/19/19 10/18/18 30/17/17
f 13/20/20 12/21/21 31/22/22
f 12/21/21 11/19/19 31/22/22
f 14/23/23 13/20/20 31/22/22
f 15/24/24 14/23/23 31/22/22
f 17/25/25 16/26/26 32/27/27
f 16/26/26 15/24/24 32/27/27
f 18/28/28 17/25/25 32/27/27
f 19/29/29 18/28/28 32/27/27
f 21/30/30 20/31/31 33/32/32
f 20/31/31 19/29/29 33/32/32
f 22/33/33 21/30/30 33/32/32
f 23/34/34 22/33/33 33/32/32
f 24/2/2 23/34/34 34/3/3
f 3/9/9 35/35/35 43/36/36 29/12/12
f 11/19/19 37/37/37 45/38/38 31/22/22
f 19/29/29 39/39/39 47/40/40 33/32/32
f 29/12/12 43/36/36 36/41/41 7/14/14
f 31/22/22 45/38/38 38/42/42 15/24/24
f 33/32/32 47/40/40 40/43/43 23/34/34
f 34/3/3 48/44/44 41/45/45 27/5/5
f 7/14/14 36/41/41 44/46/46 30/17/17
f 23/34/34 40/43/43 48/44/44 34/3/3
f 15/24/24 38/42/42 46/47/47 32/27/27
f 28/8/8 42/48/48 35/35/35 3/9/9
f 30/17/17 44/46/46 37/37/37 11/19/19
f 32/27/27 46/47/47 39/39/39 19/29/29
f 36/41/41 50/49/49 44/46/46
f 40/43/43 53/50/50 48/44/44
f 44/46/46 50/49/49 51/51/51 37/37/37
f 37/37/37 51/51/51 45/38/38
f 45/38/38 51/51/51 38/42/42
f 38/42/42 51/51/51 52/52/52 46/47/47
f 42/48/48 49/53/53 35/35/35
f 46/47/47 52/52/52 39/39/39
f 35/35/35 49/53/53 50/49/49 43/36/36
f 39/39/39 52/52/52 47/40/40
f 43/36/36 50/49/49 36/41/41
f 47/40/40 52/52/52 53/50/50 40/43/43
f 48/44/44 53/50/50 54/54/54 41/45/45
f 53/50/50 59/55/55 60/56/56 54/54/54
f 50/49/49 56/57/57 57/58/58 51/51/51
f 51/51/51 57/58/58 58/59/59 52/52/52
f 49/53/53 55/60/60 56/57/57 50/49/49
f 52/52/52 58/59/59 59/55/55 53/50/50
f 58/59/59 61/61/61 59/55/55
f 59/55/55 61/61/61 60/56/56
f 56/57/57 61/61/61 57/58/58
f 57/58/58 61/61/61 58/59/59
f 55/60/60 61/61/61 56/57/57
f 65/62/62 64/63/63 67/64/64
f 64/63/63 63/65/65 67/64/64
f 63/65/65 62/66/66 67/64/64
f 66/67/67 65/62/62 67/64/64
f 86/68/68 85/69/69 96/70/70
f 85/69/69 84/71/71 96/70/70
f 87/72/72 86/68/68 96/70/70
f 88/73/73 87/72/72 96/70/70
f 90/74/74 89/75/75 97/76/76
f 91/77/77 90/74/74 97/76/76
f 91/77/77 97/76/76 62/66/66
f 89/75/75 88/73/73 97/76/76
f 69/78/78 68/79/79 92/80/80
f 68/79/79 66/67/67 92/80/80
f 70/81/81 69/78/78 92/80/80
f 71/82/82 70/81/81 92/80/80
f 73/83/83 72/84/84 93/85/85
f 72/84/84 71/82/82 93/85/85
f 74/86/86 73/83/83 93/85/85
f 75/87/87 74/86/86 93/85/85
f 77/88/88 76/89/89 94/90/90
f 76/89/89 75/87/87 94/90/90
f 78/91/91 77/88/88 94/90/90
f 79/92/92 78/91/91 94/90/90
f 81/93/93 80/94/94 95/95/95
f 80/94/94 79/92/92 95/95/95
f 82/96/96 81/93/93 95/95/95
f 83/97/97 82/96/96 95/95/95
f 71/82/82 99/98/98 93/85/85
f 97/76/76 104/99/99 98/100/100
f 79/92/92 100/101/101 95/95/95
f 97/76/76 88/73/73 101/102/102
f 93/85/85 99/98/98 75/87/87
f 95/95/95 100/101/101 83/97/97
f 84/71/71 101/102/102 96/70/70
f 92/80/80 66/67/67 98/100/100
f 94/90/90 75/87/87 99/98/98
f 96/70/70 101/102/102 88/73/73
f 92/80/80 102/103/103 99/98/98
f 94/90/90 103/104/104 100/101/101
f 62/66/66 98/100/100 67/64/64
f 67/64/64 98/100/100 66/67/67
f 147/105/105 111/106/106 142/107/107
f 115/108/108 106/109/109 109/110/110
f 115/108/108 134/111/111 110/112/112
f 125/113/113 108/114/114 113/115/115
f 114/116/116 109/110/110 126/117/117
f 130/118/118 109/110/110 114/116/116
f 112/119/119 105/120/120 111/106/106
f 117/121/121 110/112/112 138/122/122
f 112/119/119 108/114/114 105/120/120
f 115/108/108 110/112/112 106/109/109
f 112/119/119 111/106/106 147/105/105
f 117/121/121 111/106/106 107/123/123
f 117/121/121 143/124/124 111/106/106
f 115/108/108 109/110/110 130/118/118
f 138/122/122 110/112/112 116/125/125
f 142/107/107 111/106/106 143/124/124
f 117/121/121 107/123/123 110/112/112
f 116/125/125 110/112/112 134/111/111
f 113/115/115 108/114/114 121/126/126
f 112/119/119 121/126/126 108/114/114
f 133/127/127 134/111/111 115/108/108
f 123/128/128 124/129/129 113/115/115
f 141/130/130 143/124/124 117/121/121
f 120/131/131 121/126/126 112/119/119
f 132/132/132 133/127/127 115/108/108
f 126/117/117 127/133/133 114/116/116
f 118/134/134 112/119/119 147/105/105
f 134/111/111 135/135/135 116/125/125
f 118/134/134 119/136/136 112/119/119
f 135/135/135 136/137/137 116/125/125
f 129/138/138 130/118/118 114/116/116
f 119/136/136 120/131/131 112/119/119
f 137/139/139 138/122/122 116/125/125
f 128/140/140 129/138/138 114/116/116
f 121/126/126 122/141/141 113/115/115
f 136/137/137 137/139/139 116/125/125
f 130/118/118 131/142/142 115/108/108
f 122/141/141 123/128/128 113/115/115
f 138/122/122 139/143/143 117/121/121
f 127/133/133 128/140/140 114/116/116
f 131/142/142 132/132/132 115/108/108
f 124/129/129 125/113/113 113/115/115
f 139/143/143 140/144/144 117/121/121
f 140/144/144 141/130/130 117/121/121
f 143/124/124 144/145/145 142/107/107
f 146/146/146 147/105/105 142/107/107
f 145/147/147 146/146/146 142/107/107
f 144/145/145 145/147/147 142/107/107
f 151/148/148 150/149/149 153/150/150
f 150/149/149 149/151/151 153/150/150
f 149/151/151 148/152/152 153/150/150
f 152/153/153 151/148/148 153/150/150
f 156/154/154 155/155/155 178/156/156
f 157/157/157 156/154/154 178/156/156
f 158/158/158 157/157/157 178/156/156
f 160/159/159 159/160/160 179/161/161
f 159/160/160 158/158/158 179/161/161
f 161/162/162 160/159/159 179/161/161
f 162/163/163 161/162/162 179/161/161
f 164/164/164 163/165/165 180/166/166
f 163/165/165 162/163/163 180/166/166
f 165/167/167 164/164/164 180/166/166
f 166/168/168 165/167/167 180/166/166
f 168/169/169 167/170/170 181/171/171
f 167/170/170 166/168/168 181/171/171
f 169/172/172 168/169/169 181/171/171
f 170/173/173 169/172/172 181/171/171
f 172/174/174 171/175/175 182/176/176
f 171/175/175 170/173/173 182/176/176
f 173/177/177 172/174/174 182/176/176
f 174/178/178 173/177/177 182/176/176
f 176/179/179 175/180/180 183/181/181
f 177/182/182 176/179/179 183/181/181
f 177/182/182 183/181/181 148/152/152
f 175/180/180 174/178/178 183/181/181
f 155/155/155 154/183/183 178/156/156
f 179/161/161 194/184/184 189/185/185 162/163/163
f 183/181/181 198/186/186 184/187/187 148/152/152
f 181/171/171 196/188/188 191/189/189 170/173/173
f 174/178/178 192/190/190 198/186/186 183/181/181
f 162/163/163 189/185/185 195/191/191 180/166/166
f 170/173/173 191/189/189 197/192/192 182/176/176
f 178/156/156 193/193/193 188/194/194 158/158/158
f 154/183/183 187/195/195 193/193/193 178/156/156
f 180/166/166 195/191/191 190/196/196 166/168/168
f 182/176/176 197/192/192 192/190/190 174/178/178
f 158/158/158 188/194/194 194/184/184 179/161/161
f 148/152/152 184/187/187 186/197/197 153/150/150
f 166/168/168 190/196/196 196/188/188 181/171/171
f 153/150/150 186/197/197 185/198/198 152/153/153
f 97/76/76 98/100/100 62/66/66
f 97/76/76 101/102/102 104/99/99
f 92/80/80 98/100/100 102/103/103
f 94/90/90 99/98/98 103/104/104
f 92/80/80 99/98/98 71/82/82
f 94/90/90 100/101/101 79/92/92
f 201/199/199 202/200/199 204/201/200 200/202/201
f 200/202/201 204/201/200 203/203/202 199/204/202
