# Blender v2.76 (sub 0) OBJ File: 'rocks.blend'
# www.blender.org
o Plane.002
v 4.552726 -0.617292 -4.052616
v 7.347869 0.253211 -4.098126
v 6.512717 0.686299 -4.447984
v 4.757460 0.106100 -4.386737
v 6.942439 0.951799 -5.463953
v 4.066260 0.001079 -5.363593
v 6.575320 0.540309 -6.458078
v 4.379739 -0.185440 -6.381467
v 7.928005 0.598278 -5.389706
v 7.244270 -0.327839 -6.975496
v 7.719182 -0.833406 -4.079279
v 5.531454 -1.433099 -3.951308
v 8.599115 -0.482954 -5.389707
v 7.704302 -2.142086 -5.389707
v 7.774936 -1.984080 -4.492530
v 5.755840 -2.122427 -4.564453
v 3.320584 -1.048936 -5.200601
v 3.562930 -2.227900 -5.017592
v 4.368606 -1.116715 -7.072237
v 4.430197 -2.327372 -6.927196
v 7.555958 -2.171222 -6.331751
v -3.427293 0.000000 5.222923
v -3.905933 0.093773 3.880647
v -4.837202 0.000000 3.006608
v -5.934955 0.000000 3.297954
v -4.447006 0.000000 5.732779
v -5.742458 0.093773 4.598608
v -6.095023 -0.382820 3.143193
v -4.386954 -0.660607 6.027491
v -6.095048 -0.503760 4.710507
v -5.840641 -1.008477 3.427383
v -4.489060 -1.126972 5.398703
v -5.779239 -1.116833 4.254733
v -3.033812 -0.442079 5.453612
v -3.452149 -0.390068 3.765207
v -4.655236 -0.458415 2.648733
v -3.438692 -1.132385 5.162543
v -3.895060 -1.118863 3.885426
v -4.785106 -0.951408 2.980010
v 0.670084 -0.113530 -0.326869
v 1.102237 -0.056375 -1.098428
v 0.564365 0.183095 -1.544450
v -0.191845 0.125392 -1.320796
v -0.223394 -0.050080 -0.560436
v 0.674031 -0.650373 -0.129366
v 1.328088 -0.453720 -1.245109
v 0.518918 -0.215160 -1.915821
v -0.570608 -0.187028 -1.571372
v -0.616898 -0.444483 -0.455759
v 0.593283 -0.817879 -0.314547
v 1.117679 -0.802623 -1.209104
v 0.468919 -0.784115 -1.746853
v -0.404618 -0.781933 -1.470688
v -0.441732 -0.801906 -0.576235
v -3.742761 -0.374451 -5.695056
v -3.343833 0.170625 -6.766432
v -4.330684 0.317584 -7.247079
v -5.673141 0.229350 -7.297596
v -5.879748 -0.290282 -6.245790
v -6.261128 -0.052826 -6.809815
v -6.238164 -0.766154 -6.195711
v -5.947567 -1.159116 -6.337290
v -3.586802 -0.743178 -5.424368
v -3.781742 -1.090858 -5.832920
v -6.511579 -0.407393 -6.927395
v -6.421758 -1.093708 -7.154531
v -5.762690 -0.051194 -7.773997
v -5.791742 -1.073408 -7.937727
v -4.147782 -0.123252 -7.644128
v -4.014736 -1.133254 -7.760835
v -2.928478 -0.358294 -6.986833
v -3.126831 -1.172413 -6.975676
vt 0.490617 0.364792
vt 0.353604 0.393316
vt 0.303569 0.329871
vt 0.517756 0.282659
vt 0.319189 0.251372
vt 0.547250 0.401715
vt 0.302348 0.456304
vt 0.509575 0.504566
vt 0.320975 0.552945
vt 0.526775 0.584093
vt 0.221489 0.352170
vt 0.129942 0.421980
vt 0.228853 0.529744
vt 0.148446 0.605865
vt 0.110935 0.306652
vt 0.088734 0.105422
vt 0.255411 0.179064
vt 0.019141 0.159162
vt 0.499315 0.122541
vt 0.231664 0.014844
vt 0.483909 0.213282
vt 0.622058 0.266679
vt 0.584544 0.056703
vt 0.716627 0.319057
vt 0.606123 0.498749
vt 0.688620 0.516135
vt 0.221455 0.900471
vt 0.133365 0.889650
vt 0.133667 0.789548
vt 0.281417 0.818629
vt 0.213963 0.687769
vt 0.109281 0.915177
vt 0.079749 0.775829
vt 0.045102 0.898156
vt 0.025350 0.727976
vt 0.133460 0.622371
vt 0.337640 0.827179
vt 0.246516 0.948214
vt 0.295740 0.707453
vt 0.332815 0.670544
vt 0.382681 0.892603
vt 0.296587 0.973454
vt 0.403310 0.700725
vt 0.202106 0.631077
vt 0.321866 0.593067
vt 0.215594 0.995270
vt 0.791653 0.116116
vt 0.851583 0.074479
vt 0.880799 0.165578
vt 0.909492 0.114507
vt 0.848265 0.026732
vt 0.819030 0.173938
vt 0.789177 0.213947
vt 0.953370 0.106670
vt 0.903048 0.205884
vt 0.737957 0.108958
vt 0.725618 0.219435
vt 0.988036 0.130770
vt 0.731306 0.067016
vt 0.825645 0.012365
vt 0.898783 0.265216
vt 0.807674 0.273645
vt 0.870521 0.012365
vt 0.960423 0.065990
vt 0.853755 0.805945
vt 0.780024 0.838525
vt 0.837883 0.712246
vt 0.674883 0.831843
vt 0.665483 0.739377
vt 0.632325 0.784288
vt 0.857144 0.677624
vt 0.906260 0.821386
vt 0.906931 0.680595
vt 0.966288 0.779453
vt 0.627280 0.706685
vt 0.826740 0.640621
vt 0.594205 0.780466
vt 0.537235 0.742384
vt 0.654815 0.874219
vt 0.537235 0.818726
vt 0.798840 0.885846
vt 0.647690 0.966218
vt 0.862260 0.951704
vt 0.365407 0.647953
vt 0.069476 0.581437
vt 0.498958 0.020089
vt 0.704488 0.197839
vt 0.023633 0.825445
vt 0.415042 0.822293
vt 0.227574 0.563152
vt 0.109999 0.983033
vt 0.701912 0.131279
vt 0.963940 0.214367
vt 0.641877 0.666565
vt 0.593207 0.673069
vt 0.563897 0.909601
vt 0.806533 0.976883
vt 0.944687 0.885469
vn -0.417100 0.710500 0.566700
vn -0.077400 0.840700 0.535900
vn 0.082400 0.994000 -0.071300
vn -0.645900 0.763000 0.025100
vn -0.003300 0.788400 -0.615100
vn -0.444400 0.180900 0.877400
vn 0.349700 0.500400 0.792000
vn -0.039100 -0.345200 0.937700
vn 0.498500 -0.066200 0.864300
vn 0.025300 -0.611400 0.790900
vn 0.651800 0.756600 -0.051700
vn 0.993000 0.107100 -0.048600
vn 0.624800 -0.418000 0.659400
vn 0.623100 -0.316400 -0.715300
vn 0.387300 0.210300 -0.897600
vn 0.878500 -0.473800 -0.061000
vn -0.455000 0.133200 -0.880500
vn -0.521300 0.670800 -0.527500
vn -0.976400 0.175800 0.125100
vn -0.431300 -0.159300 -0.888000
vn -0.879000 -0.331000 0.343200
vn 0.062000 0.832500 -0.550500
vn -0.530400 0.763100 -0.369200
vn -0.484200 0.831700 0.271700
vn 0.363400 0.895100 -0.258200
vn -0.085100 0.736700 0.670900
vn -0.794700 0.016500 -0.606800
vn -0.885300 -0.064600 0.460600
vn -0.744200 -0.513900 -0.426700
vn -0.768700 -0.586200 0.255900
vn -0.248600 -0.759600 0.601000
vn 0.853800 0.103200 -0.510300
vn 0.236000 0.020400 -0.971500
vn 0.465400 0.847100 0.256400
vn 0.878600 0.093300 0.468300
vn 0.701900 -0.508800 -0.498500
vn 0.140000 -0.567000 -0.811700
vn 0.714500 -0.649600 0.259800
vn -0.091500 -0.200500 0.975400
vn -0.335600 0.783500 0.523000
vn 0.337300 0.636700 0.693400
vn 0.225700 0.896200 -0.381900
vn 0.720800 0.690400 0.061900
vn 0.342800 -0.243700 0.907300
vn -0.337300 0.929900 -0.146200
vn -0.775400 0.305200 -0.552700
vn 0.978100 -0.013600 -0.207600
vn 0.192700 0.214200 -0.957600
vn -0.802200 0.071800 0.592700
vn -0.726900 -0.327700 -0.603500
vn 0.828300 -0.514300 -0.222200
vn -0.684500 -0.510800 0.520200
vn 0.198000 -0.751500 0.629400
vn 0.174300 -0.294400 -0.939600
vn 0.507500 0.859000 0.066700
vn 0.102700 0.974900 -0.197600
vn 0.208600 0.730300 0.650400
vn -0.258200 0.962300 -0.085500
vn -0.299600 0.646200 0.701900
vn -0.594500 0.777100 0.206500
vn 0.450200 -0.124800 0.884100
vn 0.950000 0.219400 -0.222000
vn 0.366900 -0.728400 0.578600
vn 0.956400 -0.235400 -0.172900
vn -0.668400 -0.116000 0.734600
vn -0.965100 0.252500 -0.068700
vn -0.957600 -0.110000 -0.266000
vn -0.368200 0.512600 -0.775600
vn 0.289600 0.436900 -0.851600
vn -0.374800 0.151400 -0.914600
vn 0.355200 0.089100 -0.930500
vn -0.427000 -0.569000 0.702700
s 1
f 4/1/1 3/2/2 5/3/3
f 6/4/4 5/3/3 7/5/5
f 1/6/6 2/7/7 3/2/2
f 2/7/7 1/6/6 12/8/8
f 11/9/9 12/8/8 16/10/10
f 2/7/7 9/11/11 5/3/3
f 13/12/12 9/11/11 2/7/7
f 13/12/12 11/13/9 15/14/13
f 7/5/5 5/3/3 9/11/11
f 13/15/12 21/16/14 10/17/15
f 14/18/16 21/16/14 13/15/12
f 7/5/5 10/17/15 19/19/17
f 19/19/17 10/17/15 21/20/14
f 8/21/18 19/19/17 17/22/19
f 17/22/19 19/19/17 20/23/20
f 1/6/6 4/1/1 6/4/4
f 1/6/6 17/22/19 18/24/21
f 12/25/8 18/24/21 16/26/10
f 24/27/22 25/28/23 27/29/24
f 23/30/25 27/29/24 26/31/26
f 25/28/23 28/32/27 30/33/28
f 26/31/26 27/29/24 30/33/28
f 30/33/28 28/32/27 31/34/29
f 30/33/28 33/35/30 32/36/31
f 23/30/25 35/37/32 36/38/33
f 22/39/34 34/40/35 35/37/32
f 35/37/32 38/41/36 39/42/37
f 35/37/32 34/40/35 37/43/38
f 22/39/34 26/31/26 29/44/39
f 37/45/38 34/40/35 29/44/39
f 24/27/22 36/38/33 28/32/27
f 28/32/27 36/38/33 39/46/37
f 44/47/40 40/48/41 42/49/42
f 41/50/43 42/49/42 40/48/41
f 41/50/43 40/48/41 45/51/44
f 44/47/40 43/52/45 48/53/46
f 41/50/43 46/54/47 47/55/48
f 44/47/40 49/56/49 45/51/44
f 43/52/45 42/49/42 47/55/48
f 49/56/49 48/53/46 53/57/50
f 47/55/48 46/54/47 51/58/51
f 49/56/49 54/59/52 50/60/53
f 47/55/48 52/61/54 53/62/50
f 45/51/44 50/63/53 51/64/51
f 56/65/55 57/66/56 55/67/57
f 57/66/56 58/68/58 59/69/59
f 60/70/60 59/69/59 58/68/58
f 55/67/57 63/71/61 71/72/62
f 64/73/63 72/74/64 71/72/62
f 59/69/59 61/75/65 63/71/61
f 64/76/63 63/71/61 61/75/65
f 60/70/60 65/77/66 61/75/65
f 61/75/65 65/77/66 66/78/67
f 67/79/68 65/77/66 60/70/60
f 66/80/67 65/77/66 67/79/68
f 57/66/56 69/81/69 67/79/68
f 68/82/70 67/79/68 69/81/69
f 56/65/55 71/72/62 69/81/69
f 70/83/71 69/81/69 71/72/62
f 6/4/4 4/1/1 5/3/3
f 8/21/18 6/4/4 7/5/5
f 4/1/1 1/6/6 3/2/2
f 11/9/9 2/7/7 12/8/8
f 15/84/13 11/9/9 16/10/10
f 3/2/2 2/7/7 5/3/3
f 11/13/9 13/12/12 2/7/7
f 14/85/16 13/12/12 15/14/13
f 10/17/15 7/5/5 9/11/11
f 9/11/11 13/15/12 10/17/15
f 8/21/18 7/5/5 19/19/17
f 20/86/20 19/19/17 21/20/14
f 6/4/4 8/21/18 17/22/19
f 18/87/21 17/22/19 20/23/20
f 17/22/19 1/6/6 6/4/4
f 12/25/8 1/6/6 18/24/21
f 23/30/25 24/27/22 27/29/24
f 22/39/34 23/30/25 26/31/26
f 27/29/24 25/28/23 30/33/28
f 29/44/39 26/31/26 30/33/28
f 33/88/30 30/33/28 31/34/29
f 29/44/39 30/33/28 32/36/31
f 24/27/22 23/30/25 36/38/33
f 23/30/25 22/39/34 35/37/32
f 36/38/33 35/37/32 39/42/37
f 38/89/36 35/37/32 37/43/38
f 34/40/35 22/39/34 29/44/39
f 32/90/31 37/45/38 29/44/39
f 25/28/23 24/27/22 28/32/27
f 31/91/29 28/32/27 39/46/37
f 43/52/45 44/47/40 42/49/42
f 46/54/47 41/50/43 45/51/44
f 49/56/49 44/47/40 48/53/46
f 42/49/42 41/50/43 47/55/48
f 40/48/41 44/47/40 45/51/44
f 48/53/46 43/52/45 47/55/48
f 54/92/52 49/56/49 53/57/50
f 52/93/54 47/55/48 51/58/51
f 45/51/44 49/56/49 50/60/53
f 48/53/46 47/55/48 53/62/50
f 46/54/47 45/51/44 51/64/51
f 55/67/57 57/66/56 59/69/59
f 56/65/55 55/67/57 71/72/62
f 63/71/61 64/73/63 71/72/62
f 55/67/57 59/69/59 63/71/61
f 62/94/72 64/76/63 61/75/65
f 59/69/59 60/70/60 61/75/65
f 62/95/72 61/75/65 66/78/67
f 58/68/58 67/79/68 60/70/60
f 68/96/70 66/80/67 67/79/68
f 58/68/58 57/66/56 67/79/68
f 70/97/71 68/82/70 69/81/69
f 57/66/56 56/65/55 69/81/69
f 72/98/64 70/83/71 71/72/62
